<?xml version="1.0" standalone="no"?>
<!DOCTYPE svg PUBLIC "-//W3C//DTD SVG 20010904//EN"
 "http://www.w3.org/TR/2001/REC-SVG-20010904/DTD/svg10.dtd">
<svg version="1.0" xmlns="http://www.w3.org/2000/svg"
 width="48.000000pt" height="48.000000pt" viewBox="0 0 48.000000 48.000000"
 preserveAspectRatio="xMidYMid meet">

<g transform="translate(0.000000,48.000000) scale(0.100000,-0.100000)"
fill="none" stroke="#ffffff" stroke-width="16" stroke-linecap="round" stroke-linejoin="round">
<path d="M32 448 c-8 -8 -12 -46 -12 -106 0 -90 1 -95 30 -123 29 -30 29 -30
10 -49 -24 -24 -24 -32 -5 -69 20 -39 72 -81 100 -81 14 0 35 14 54 35 l31 36
31 -36 c19 -21 40 -35 54 -35 28 0 80 42 100 81 19 37 19 45 -5 69 -19 19 -19
19 10 49 29 28 30 33 30 123 0 60 -4 98 -12 106 -32 32 -101 1 -168 -75 l-40
-46 -40 46 c-67 76 -136 107 -168 75z"/>
</g>
</svg>
